<svg width="512" height="512" viewBox="0 0 512 512" xmlns="http://www.w3.org/2000/svg" role="img" aria-label="AsteriaStar" focusable="false"><title>AsteriaStar</title><defs><radialGradient id="asteriastar-navy" cx="0.5" cy="0.38" r="0.8"><stop offset="0" stop-color="#0a1728"></stop><stop offset="0.6" stop-color="#07111c"></stop><stop offset="1" stop-color="#02050b"></stop></radialGradient><linearGradient id="asteriastar-gold" x1="0.14" y1="0.04" x2="0.86" y2="0.96"><stop offset="0" stop-color="#fff7d8"></stop><stop offset="0.5" stop-color="#e7c98a"></stop><stop offset="1" stop-color="#a47a21"></stop></linearGradient><linearGradient id="asteriastar-silver" x1="0.1" y1="0" x2="0.9" y2="1"><stop offset="0" stop-color="#ffffff"></stop><stop offset="0.45" stop-color="#c8d2e6"></stop><stop offset="1" stop-color="#637088"></stop></linearGradient><radialGradient id="asteriastar-star" cx="0.46" cy="0.42" r="0.58"><stop offset="0" stop-color="#ffffff"></stop><stop offset="0.32" stop-color="#fff4c9"></stop><stop offset="0.72" stop-color="#e7c98a"></stop><stop offset="1" stop-color="#9f761f"></stop></radialGradient><radialGradient id="asteriastar-glow" cx="0.5" cy="0.5" r="0.5"><stop offset="0" stop-color="#ffffff" stop-opacity="0.48"></stop><stop offset="0.28" stop-color="#e7c98a" stop-opacity="0.16"></stop><stop offset="1" stop-color="#ffffff" stop-opacity="0"></stop></radialGradient></defs><rect width="512" height="512" rx="112" fill="url(#asteriastar-navy)"></rect><rect x="5" y="5" width="502" height="502" rx="107" fill="none" stroke="#ffffff" stroke-opacity="0.08" stroke-width="2"></rect><g fill="none" stroke-linecap="round"><circle cx="256" cy="256" r="172" stroke="url(#asteriastar-silver)" stroke-width="5" opacity="0.34"></circle><circle cx="256" cy="256" r="128" stroke="#ffffff" stroke-width="1.5" opacity="0.12"></circle><path d="M256 66v38M256 408v38M66 256h38M408 256h38" stroke="url(#asteriastar-gold)" stroke-width="8" opacity="0.86"></path><path d="M121 121l27 27M364 364l27 27M391 121l-27 27M148 364l-27 27" stroke="#c8d2e6" stroke-width="4" opacity="0.36"></path></g><g transform="translate(256 256)"><circle r="118" fill="url(#asteriastar-glow)"></circle><path d="M0 -190 L24 -26 L190 0 L24 26 L0 190 L-24 26 L-190 0 L-24 -26 Z" fill="url(#asteriastar-gold)"></path><path d="M0 -112 L13 -13 L112 0 L13 13 L0 112 L-13 13 L-112 0 L-13 -13 Z" fill="#ffffff" opacity="0.9"></path><g stroke="url(#asteriastar-silver)" stroke-width="8" stroke-linecap="round" opacity="0.72"><path d="M0 0 L58 -58"></path><path d="M0 0 L58 58"></path><path d="M0 0 L-58 58"></path><path d="M0 0 L-58 -58"></path></g><circle r="58" fill="url(#asteriastar-star)"></circle><circle r="17" fill="#ffffff"></circle></g></svg>
