<svg width="512" height="512" viewBox="0 0 512 512" xmlns="http://www.w3.org/2000/svg" role="img" aria-label="AsteriaStar" focusable="false"><title>AsteriaStar</title><rect width="512" height="512" rx="112" fill="#020304"></rect><rect x="5" y="5" width="502" height="502" rx="107" fill="none" stroke="#ffffff" stroke-opacity="0.08" stroke-width="2"></rect><g fill="none" stroke-linecap="round"><circle cx="256" cy="256" r="172" stroke="#d9dee2" stroke-width="5" opacity="0.36"></circle><circle cx="256" cy="256" r="128" stroke="#d9dee2" stroke-width="1.5" opacity="0.14"></circle><path d="M256 66v38M256 408v38M66 256h38M408 256h38" stroke="#e10600" stroke-width="8" opacity="0.92"></path><path d="M121 121l27 27M364 364l27 27M391 121l-27 27M148 364l-27 27" stroke="#8f989f" stroke-width="4" opacity="0.42"></path></g><g transform="translate(256 256)"><circle r="118" fill="#ffffff" opacity="0.08"></circle><path d="M0 -190 L24 -26 L190 0 L24 26 L0 190 L-24 26 L-190 0 L-24 -26 Z" fill="#e10600"></path><path d="M0 -112 L13 -13 L112 0 L13 13 L0 112 L-13 13 L-112 0 L-13 -13 Z" fill="#ffffff" opacity="0.9"></path><g stroke="#d9dee2" stroke-width="8" stroke-linecap="round" opacity="0.72"><path d="M0 0 L58 -58"></path><path d="M0 0 L58 58"></path><path d="M0 0 L-58 58"></path><path d="M0 0 L-58 -58"></path></g><circle r="58" fill="#f5f7f8"></circle><circle r="17" fill="#ffffff"></circle></g></svg>
