<svg width="512" height="512" viewBox="0 0 512 512" xmlns="http://www.w3.org/2000/svg" role="img" aria-label="AsteriaStar" focusable="false"><title>AsteriaStar</title><defs><radialGradient id="asteriastar-navy" cx="0.5" cy="0.42" r="0.75"><stop offset="0" stop-color="#0b1330"></stop><stop offset="1" stop-color="#05060f"></stop></radialGradient><linearGradient id="asteriastar-gold" x1="0.15" y1="0" x2="0.85" y2="1"><stop offset="0" stop-color="#fdebba"></stop><stop offset="0.45" stop-color="#e9c163"></stop><stop offset="0.8" stop-color="#c6941d"></stop><stop offset="1" stop-color="#9c7412"></stop></linearGradient><linearGradient id="asteriastar-gold-soft" x1="0" y1="0" x2="1" y2="1"><stop offset="0" stop-color="#f8dd96"></stop><stop offset="1" stop-color="#b8860b"></stop></linearGradient><radialGradient id="asteriastar-star" cx="0.5" cy="0.5" r="0.5"><stop offset="0" stop-color="#fffaf0"></stop><stop offset="0.35" stop-color="#ffe9a8"></stop><stop offset="1" stop-color="#f0b83f"></stop></radialGradient><radialGradient id="asteriastar-earth" cx="0.4" cy="0.32" r="0.85"><stop offset="0" stop-color="#8fd0ff"></stop><stop offset="0.4" stop-color="#3d86cf"></stop><stop offset="0.75" stop-color="#123a6b"></stop><stop offset="1" stop-color="#071c38"></stop></radialGradient></defs><rect width="512" height="512" rx="112" fill="url(#asteriastar-navy)"></rect><rect x="4" y="4" width="504" height="504" rx="108" fill="none" stroke="rgba(255,255,255,0.06)" stroke-width="2"></rect><g fill="#e9ebf8"><circle cx="120" cy="132" r="2.4" opacity="0.8"></circle><circle cx="404" cy="150" r="1.8" opacity="0.65"></circle><circle cx="150" cy="330" r="1.6" opacity="0.5"></circle><circle cx="392" cy="356" r="2.2" opacity="0.7"></circle><circle cx="316" cy="110" r="1.4" opacity="0.55"></circle><circle cx="96" cy="250" r="1.5" opacity="0.5"></circle></g><circle cx="404" cy="150" r="5" fill="url(#asteriastar-gold-soft)" opacity="0.9"></circle><circle cx="256" cy="250" r="150" fill="none" stroke="url(#asteriastar-gold)" stroke-width="3" opacity="0.7"></circle><g><circle cx="256" cy="498" r="80" fill="url(#asteriastar-earth)"></circle><path d="M182 478 A80 80 0 0 1 330 478" fill="none" stroke="#9ad4ff" stroke-width="3" opacity="0.75" stroke-linecap="round"></path></g><path d="M176 384 L336 384" fill="none" stroke="url(#asteriastar-gold)" stroke-width="16" stroke-linecap="round"></path><path d="M150 452 L256 58 L362 452" fill="none" stroke="url(#asteriastar-gold)" stroke-width="24" stroke-linejoin="round" stroke-linecap="round"></path><path d="M256 40 L244 82 L268 82 Z" fill="url(#asteriastar-gold)"></path><g><circle cx="256" cy="296" r="62" fill="url(#asteriastar-star)" opacity="0.30"></circle><path d="M256 212 L272 280 L340 296 L272 312 L256 380 L240 312 L172 296 L240 280 Z" fill="url(#asteriastar-star)"></path><g stroke="url(#asteriastar-star)" stroke-width="6" stroke-linecap="round" opacity="0.85"><path d="M256 296 L289 263"></path><path d="M256 296 L289 329"></path><path d="M256 296 L223 329"></path><path d="M256 296 L223 263"></path></g><circle cx="256" cy="296" r="9" fill="#fffaf0"></circle></g></svg>
